#N canvas 0 0 616 506 10;
#X obj 243 244 / 2;
#X obj 365 245 / 4;
#X obj 139 331 ftom;
#X obj 139 310 max 0;
#X obj 139 251 change;
#X obj 190 277 change;
#X obj 333 288 change;
#X obj 127 24 inlet;
#X obj 139 415 outlet;
#X obj 135 189 expr if($f2<$f1 & $f1<$f3 \, $f1 \, 0) \; if(($f2*2)<$f1
& $f1<($f3*2) \, $f1 \, 0) \; if(($f2*4)<$f1 & $f1<($f3*4) \, $f1 \,
0);
#X obj 247 138 - 1;
#X obj 360 143 + 1;
#X obj 360 163 mtof;
#X obj 247 158 mtof;
#X obj 348 43 inlet;
#X text 408 44 Target midi note;
#X text 392 164 One half-step above (frequ);
#X text 149 108 One half-step below (frequ);
#X obj 139 388 - 0;
#X text 166 387 Minus target note to output 0 when in tune.;
#X obj 267 442 f;
#X obj 266 468 outlet;
#X obj 267 423 bang;
#X text 304 439 Output target midi note everytime something's;
#X text 304 453 output.;
#X text 391 482 Pierre Massat \, GuitarExtended \, 2012;
#X connect 0 0 5 0;
#X connect 1 0 6 0;
#X connect 2 0 18 0;
#X connect 2 0 22 0;
#X connect 3 0 2 0;
#X connect 4 0 3 0;
#X connect 5 0 3 0;
#X connect 6 0 3 0;
#X connect 7 0 9 0;
#X connect 9 0 4 0;
#X connect 9 1 0 0;
#X connect 9 2 1 0;
#X connect 10 0 13 0;
#X connect 11 0 12 0;
#X connect 12 0 9 2;
#X connect 13 0 9 1;
#X connect 14 0 10 0;
#X connect 14 0 11 0;
#X connect 14 0 18 1;
#X connect 14 0 20 1;
#X connect 18 0 8 0;
#X connect 20 0 21 0;
#X connect 22 0 20 0;
